<?xml version="1.0" encoding="UTF-8" standalone="no"?><!-- Generator: Gravit.io --><svg xmlns="http://www.w3.org/2000/svg" xmlns:xlink="http://www.w3.org/1999/xlink" style="isolation:isolate" viewBox="0 0 525 525" width="525pt" height="525pt"><defs><clipPath id="_clipPath_oNsQe4AyF4fY57qvR2TdLu2g6R6bPxek"><rect width="525" height="525"/></clipPath></defs><g clip-path="url(#_clipPath_oNsQe4AyF4fY57qvR2TdLu2g6R6bPxek)"><circle vector-effect="non-scaling-stroke" cx="261.9999999999996" cy="261.9999999999986" r="259.99999999999994" fill="rgb(255,195,0)"/><g style="isolation:isolate"><path d=" M 203 377 L 199 339 L 319 342 L 315 377 L 203 377 Z " fill="rgb(223,197,147)" vector-effect="non-scaling-stroke" stroke-width="0.3" stroke="rgb(0,0,0)" stroke-linejoin="miter" stroke-linecap="square" stroke-miterlimit="3"/></g><g style="isolation:isolate"><path d=" M 151 221 Q 131.125 230 138 249 Q 147 271.75 168 279 Q 181.75 321 204 344 Q 225 371.5 259 374 Q 294.25 373.25 318 344 Q 345.75 308.5 353 281 Q 378.75 269.25 384 253 Q 390 240.5 384 230 Q 377.75 222.875 374 223 L 353 143 L 266 112 L 172 143 L 151 221 Z " fill="rgb(249,221,165)" vector-effect="non-scaling-stroke" stroke-width="1" stroke="rgb(0,0,0)" stroke-linejoin="miter" stroke-linecap="square" stroke-miterlimit="3"/></g><g style="isolation:isolate"><path d=" M 162 259 Q 164.333 217.333 182 211 Q 184.625 202.5 182 198 Q 170.25 183.375 173 170 Q 175.125 154.25 200 143 Q 222.625 132.125 267 130 Q 306.25 131 337 149 Q 363.5 166 356 188 Q 346.75 207.75 347 212 L 347 212 Q 347.625 219.125 352 222 Q 357.875 231 358 251 Q 358.375 259.875 357 262 Q 360.75 260.25 363 255 L 367 231 L 367 231 Q 377.875 220 381 206 Q 384.25 189.75 381 161 Q 372.875 135.125 377 127 Q 381.625 113.25 395 110 Q 384.25 99.875 374 97 Q 360.25 90.375 334 90 Q 338.75 83.5 367 73 Q 339.625 60.5 320 60 Q 293.125 59.75 264 69 Q 265.875 53.125 284 42 Q 254.5 41.625 230 55 Q 203.875 70 191 84 L 180 97 L 180 97 Q 177.875 76.875 188 67 Q 170.625 78.25 159 98 Q 151.125 113.125 149 126 Q 144.625 143.625 143 160 C 141.375 176.375 142.25 185.75 144 204 Q 146.125 212.25 149 217 Q 155.25 228.125 157 237 L 162 259 Z " fill="rgb(0,0,0)" vector-effect="non-scaling-stroke" stroke-width="1" stroke="rgb(0,0,0)" stroke-linejoin="miter" stroke-linecap="square" stroke-miterlimit="3"/></g><g style="isolation:isolate"><path d=" M 200 377 L 328 377 L 328 418 L 265 524 L 254 524 L 190 412 L 200 377 Z " fill="rgb(255,255,255)" vector-effect="non-scaling-stroke" stroke-width="0.3" stroke="rgb(0,0,0)" stroke-linejoin="miter" stroke-linecap="square" stroke-miterlimit="3"/><path d=" M 79 448 Q 89.5 412.5 147 388 Q 186.75 375.25 190 369 L 204 369 L 204 406 L 254 516 L 254 516 L 254 523 Q 152.5 516 79 448 Z " fill="rgb(0,0,0)" vector-effect="non-scaling-stroke" stroke-width="1" stroke="rgb(0,0,0)" stroke-linejoin="miter" stroke-linecap="square" stroke-miterlimit="3"/><path d=" M 440 449 Q 429.5 413.5 372 389 Q 332.25 376.25 329 370 L 315 370 L 315 407 L 265 517 L 265 517 L 265 524 Q 366.5 517 440 449 Z " fill="rgb(0,0,0)" vector-effect="non-scaling-stroke" stroke-width="1" stroke="rgb(0,0,0)" stroke-linejoin="miter" stroke-linecap="square" stroke-miterlimit="3"/></g></g></svg>